#!OML:ASF F:\VICON\USERDATA\INSTALL\rory3\rory3.ASF
:FULLY-SPECIFIED
:DEGREES
1782
root -1.41596 16.5853 6.82557 -166.543 199.944 -190.722
lowerback 13.8566 7.15335 -6.6932
upperback 4.61184 8.268 -3.19035
thorax -3.26763 4.0373 -1.01566
lowerneck -1.35134 -0.82268 -9.22967
upperneck 14.0908 -0.962512 3.22908
head 4.51164 -0.76643 2.47529
rclavicle -7.95139e-015 3.81667e-014
rhumerus 11.4373 23.3568 -88.9913
rradius 90.7402
rwrist -66.2617
rhand 2.90685 7.87857
rfingers 7.12502
rthumb 28.3715 -19.9915
lclavicle -7.95139e-015 3.81667e-014
lhumerus -10.673 -18.1098 90.0521
lradius 108.971
lwrist 60.0505
lhand 21.5839 26.3763
lfingers 7.12502
lthumb 46.0077 49.4676
rfemur 1.4043 4.93191 12.3877
rtibia 46.389
rfoot 1.13954 12.813
rtoes -18.0379
lfemur -54.7858 -11.2097 8.31538
ltibia 56.908
lfoot -8.69189 -16.58
ltoes -4.96598
1783
root -1.42344 16.5935 6.80637 -166.938 200.798 -190.796
lowerback 13.5305 7.25636 -6.55402
upperback 4.62497 8.45329 -3.2636
thorax -3.05568 4.12768 -1.1562
lowerneck -1.5275 -0.694677 -9.31445
upperneck 13.8824 -0.820985 3.62929
head 4.46715 -0.675716 2.61835
rclavicle 1.09729e-013 -3.33958e-014
rhumerus 8.95297 24.0046 -90.15
rradius 90.0349
rwrist -65.3774
rhand 2.69917 7.62257
rfingers 7.12502
rthumb 28.1731 -20.2804
lclavicle 1.09729e-013 -3.33958e-014
lhumerus -11.119 -17.5527 89.6212
lradius 109.011
lwrist 59.6043
lhand 21.4218 26.2839
lfingers 7.12502
lthumb 45.8572 49.4377
rfemur 1.39047 5.11211 12.7842
rtibia 46.3418
rfoot 1.65971 13.4624
rtoes -20.1182
lfemur -53.7965 -10.7764 8.14237
ltibia 56.6874
lfoot -8.97673 -16.5443
ltoes -6.13759
1784
root -1.43223 16.6118 6.77701 -167.14 201.681 -190.928
lowerback 13.122 7.30823 -6.50017
upperback 4.56237 8.56807 -3.27175
thorax -2.8984 4.18522 -1.16576
lowerneck -1.72076 -0.523609 -9.29171
upperneck 13.7266 -0.593131 3.76651
head 4.43552 -0.552248 2.66583
rclavicle -2.46493e-014 -1.74931e-014
rhumerus 6.14647 24.6753 -91.4285
rradius 89.4347
rwrist -64.3952
rhand 2.82698 7.58473
rfingers 7.12502
rthumb 28.2952 -20.298
lclavicle -2.46493e-014 -1.74931e-014
lhumerus -11.7642 -16.7752 89.2851
lradius 109.061
lwrist 59.0342
lhand 21.6579 26.4241
lfingers 7.12502
lthumb 46.0763 49.4868
rfemur 1.09672 5.13885 13.2132
rtibia 46.2244
rfoot 1.89168 13.1394
rtoes -22.0604
lfemur -52.9134 -10.3311 8.14888
ltibia 56.3407
lfoot -8.85549 -16.4365
ltoes -5.78664
1785
root -1.43915 16.6459 6.74923 -167.475 202.628 -190.928
lowerback 12.8321 7.37986 -6.53873
upperback 4.50148 8.68353 -3.28551
thorax -2.81429 4.24273 -1.14682
lowerneck -1.88077 -0.358094 -9.2433
upperneck 13.5958 -0.36629 3.81511
head 4.40627 -0.433307 2.68165
rclavicle 1.19271e-014 3.49861e-014
rhumerus 3.27145 25.29 -92.5529
rradius 88.8649
rwrist -63.4578
rhand 3.01966 7.46119
rfingers 7.12502
rthumb 28.4793 -20.3909
lclavicle 1.19271e-014 3.49861e-014
lhumerus -12.4702 -16.0111 88.9965
lradius 109.021
lwrist 58.5447
lhand 21.6825 26.533
lfingers 7.12502
lthumb 46.0991 49.5862
rfemur 0.86348 5.02284 13.4297
rtibia 46.177
rfoot 1.83479 12.0965
rtoes -23.69
lfemur -51.8099 -10.1798 8.07072
ltibia 55.7874
lfoot -8.84517 -16.0462
ltoes -5.3902
1786
root -1.44559 16.6961 6.72 -167.839 203.577 -190.76
lowerback 12.5936 7.48019 -6.56787
upperback 4.44994 8.82881 -3.39452
thorax -2.73193 4.3149 -1.24095
lowerneck -2.03676 -0.262613 -9.21615
upperneck 13.4337 -0.240085 3.93246
head 4.37326 -0.360148 2.71782
rclavicle 3.10104e-014 -4.77083e-014
rhumerus 0.409309 25.6895 -93.57
rradius 88.5364
rwrist -62.6844
rhand 2.69871 6.99473
rfingers 7.12502
rthumb 28.1726 -20.9083
lclavicle 3.10104e-014 -4.77083e-014
lhumerus -13.2198 -15.5182 88.7432
lradius 109.032
lwrist 58.0707
lhand 21.0629 26.4256
lfingers 7.12502
lthumb 45.5239 49.7158
rfemur 0.612327 4.8143 13.4268
rtibia 46.2185
rfoot 1.52565 10.3514
rtoes -25.5627
lfemur -50.6206 -10.2146 7.86506
ltibia 55.0063
lfoot -8.88316 -15.3589
ltoes -5.9563
1787
root -1.45565 16.759 6.6899 -168.091 204.449 -190.596
lowerback 12.2308 7.5186 -6.58661
upperback 4.37695 8.90778 -3.50124
thorax -2.60196 4.35506 -1.31113
lowerneck -2.17003 -0.153793 -9.25701
upperneck 13.2537 -0.0997685 4.10225
head 4.32991 -0.280473 2.78187
rclavicle -2.54444e-014 3.49861e-014
rhumerus -2.52535 26.0651 -94.6111
rradius 88.4265
rwrist -62.0484
rhand 2.17201 6.73616
rfingers 7.12502
rthumb 27.6691 -21.2487
lclavicle -2.54444e-014 3.49861e-014
lhumerus -14.1935 -14.9755 88.5025
lradius 109.178
lwrist 57.6116
lhand 20.6212 26.5143
lfingers 7.12502
lthumb 45.1134 49.9691
rfemur 0.302111 4.58702 13.4222
rtibia 46.3381
rfoot 1.53053 8.08781
rtoes -26.0082
lfemur -49.4425 -10.3833 7.74207
ltibia 54.002
lfoot -8.67796 -14.5166
ltoes -6.49357
1788
root -1.4666 16.8358 6.64393 -168.257 205.107 -190.334
lowerback 11.893 7.41901 -6.74132
upperback 4.25483 8.78693 -3.56963
thorax -2.55677 4.29744 -1.2454
lowerneck -2.3253 0.0299584 -9.24938
upperneck 13.1229 0.153863 4.15466
head 4.29794 -0.15002 2.80666
rclavicle 5.725e-014 -2.22639e-014
rhumerus -5.44319 26.4274 -95.7334
rradius 88.257
rwrist -61.2293
rhand 2.2366 6.8538
rfingers 7.12502
rthumb 27.7308 -21.1212
lclavicle 5.725e-014 -2.22639e-014
lhumerus -15.3373 -14.1587 88.273
lradius 109.394
lwrist 57.2569
lhand 20.8826 26.8768
lfingers 7.12502
lthumb 45.3564 50.2346
rfemur -0.0834772 4.15806 13.337
rtibia 46.5324
rfoot 2.07639 5.73044
rtoes -24.0879
lfemur -48.415 -10.6787 7.63425
ltibia 52.7405
lfoot -8.3862 -13.6591
ltoes -7.09817
1789
root -1.47423 16.9277 6.59392 -168.405 205.862 -190.106
lowerback 11.596 7.3204 -6.77377
upperback 4.14007 8.67706 -3.664
thorax -2.504 4.24573 -1.27772
lowerneck -2.46443 0.245672 -9.14009
upperneck 12.9611 0.45537 4.09722
head 4.25137 0.00349503 2.78216
rclavicle -1.06549e-013 5.56597e-014
rhumerus -8.28029 26.6647 -96.8299
rradius 88.2218
rwrist -60.1283
rhand 2.5224 6.53785
rfingers 7.12502
rthumb 28.0041 -21.3928
lclavicle -1.06549e-013 5.56597e-014
lhumerus -16.4985 -13.3259 88.0008
lradius 109.647
lwrist 56.8945
lhand 21.4946 27.1276
lfingers 7.12502
lthumb 45.9247 50.2534
rfemur -0.409347 3.76719 13.1774
rtibia 46.672
rfoot 2.42183 3.74758
rtoes -21.3416
lfemur -47.2496 -10.8367 7.49302
ltibia 51.2525
lfoot -8.26821 -12.7841
ltoes -8.01958
1790
root -1.487 17.0344 6.54362 -168.674 206.591 -189.905
lowerback 11.4192 7.24384 -6.76747
upperback 4.09083 8.59202 -3.71959
thorax -2.44841 4.20462 -1.30547
lowerneck -2.49328 0.471472 -9.10063
upperneck 12.6096 0.750582 4.17093
head 4.12806 0.160496 2.8067
rclavicle -1.43125e-013 5.40694e-014
rhumerus -10.8586 26.8593 -97.6866
rradius 88.1481
rwrist -58.8074
rhand 2.61157 6.55862
rfingers 7.12502
rthumb 28.0893 -21.3581
lclavicle -1.43125e-013 5.40694e-014
lhumerus -17.696 -12.5816 87.8024
lradius 109.936
lwrist 56.5174
lhand 21.6233 27.2244
lfingers 7.12502
lthumb 46.0442 50.3005
rfemur -0.444524 3.42951 13.0498
rtibia 46.6566
rfoot 2.20492 2.28246
rtoes -18.8967
lfemur -45.812 -11.0756 7.35701
ltibia 49.5455
lfoot -7.92668 -11.79
ltoes -8.20356
1791
root -1.50765 17.1539 6.495 -169.041 207.434 -189.661
lowerback 11.2558 7.21139 -6.92151
upperback 4.06712 8.54722 -3.73775
thorax -2.40231 4.18131 -1.21677
lowerneck -2.47202 0.749161 -9.17204
upperneck 12.1726 1.10741 4.34904
head 3.96476 0.349349 2.88198
rclavicle 5.24792e-014 1.27222e-014
rhumerus -13.3286 27.1704 -98.4168
rradius 87.9503
rwrist -57.3367
rhand 2.40337 7.42844
rfingers 7.12502
rthumb 27.8903 -20.5208
lclavicle 5.24792e-014 1.27222e-014
lhumerus -19.0494 -11.7936 87.6927
lradius 110.269
lwrist 56.1427
lhand 21.3133 27.0746
lfingers 7.12502
lthumb 45.7565 50.2699
rfemur -0.321128 3.32682 12.8868
rtibia 46.3616
rfoot 2.10682 1.04464
rtoes -17.0056
lfemur -44.0933 -11.2975 7.11926
ltibia 47.6555
lfoot -7.31912 -10.643
ltoes -10.087
